<svg width="24" height="24" viewBox="0 0 24 24" fill="none" xmlns="http://www.w3.org/2000/svg">
<g id=" Outline / checkmark-circle-2">
<path id="Union" fill-rule="evenodd" clip-rule="evenodd" d="M20.997 10.9741H21C21.551 10.9741 21.999 11.4201 22 11.9711C22.008 14.6421 20.975 17.1571 19.091 19.0511C17.208 20.9451 14.7 21.9921 12.029 22.0001H12C9.33905 22.0001 6.83605 20.9681 4.94905 19.0911C3.05505 17.2081 2.00805 14.7001 2.00005 12.0291C1.99205 9.3571 3.02505 6.8431 4.90905 4.9491C6.79205 3.0551 9.30005 2.0081 11.971 2.0001C12.766 2.0121 13.576 2.0921 14.352 2.2781C14.888 2.4081 15.219 2.9481 15.089 3.4851C14.96 4.0211 14.417 4.3511 13.883 4.2231C13.262 4.0731 12.603 4.0101 11.977 4.0001C9.84005 4.0061 7.83305 4.8441 6.32705 6.3591C4.82005 7.8741 3.99405 9.8861 4.00005 12.0231C4.00605 14.1601 4.84405 16.1661 6.35905 17.6731C7.86905 19.1741 9.87105 20.0001 12 20.0001H12.023C14.16 19.9941 16.167 19.1561 17.673 17.6411C19.18 16.1251 20.006 14.1141 20 11.9771C19.999 11.4251 20.445 10.9751 20.997 10.9741ZM8.29305 11.293C8.68405 10.902 9.31605 10.902 9.70705 11.293L11.951 13.537L18.248 6.341C18.612 5.928 19.243 5.884 19.659 6.248C20.074 6.611 20.116 7.243 19.752 7.659L12.752 15.659C12.57 15.867 12.31 15.99 12.033 16H12C11.735 16 11.481 15.895 11.293 15.707L8.29305 12.707C7.90205 12.316 7.90205 11.684 8.29305 11.293Z" fill="#30E0A1"/>
</g>
</svg>
